<svg width="22" height="21" viewBox="0 0 22 21" fill="currentColor" xmlns="http://www.w3.org/2000/svg">
  <path d="
    M12.2208 2.40551
    L12.2206 2.40576
    L11.3741 3.35732
    L11.0005 3.77727
    L10.627 3.35732
    L9.78047 2.40576
    L9.77992 2.40514
    C7.78271 0.152585 4.59762 -0.169649 2.47664 1.80201
    C-0.0175439 4.1245 -0.15494 8.32357 2.0848 10.8495
    L10.399 20.2148
    C10.399 20.2149 10.399 20.2149 10.3991 20.2149
    C10.7372 20.5955 11.2595 20.5955 11.5977 20.2149
    C11.5977 20.2149 11.5978 20.2149 11.5978 20.2148
    L19.9122 10.8493
    L19.9123 10.8492
    C22.1559 8.32335 22.0186 4.12461 19.5245 1.80213
    C17.4035 -0.169452 14.2226 0.15233 12.2208 2.40551
    Z" stroke="#101010"/>
</svg>
